<?xml version="1.0" encoding="UTF-8"?>
<svg width="23px" height="23px" viewBox="0 0 23 23" version="1.1" xmlns="http://www.w3.org/2000/svg" xmlns:xlink="http://www.w3.org/1999/xlink">
    <!-- Generator: Sketch 43.2 (39069) - http://www.bohemiancoding.com/sketch -->
    <title>fav</title>
    <desc>Created with Sketch.</desc>
    <defs></defs>
    <g id="Page-1" stroke="none" stroke-width="1" fill="none" fill-rule="evenodd">
        <g id="Desktop-Copy-8" transform="translate(-977.000000, -178.000000)">
            <g id="added" transform="translate(939.000000, 91.000000)">
                <g id="fav" transform="translate(39.000000, 88.000000)">
                    <g id="Group-2">
                        <path d="M14.184375,5.25 C14.2921875,5.25 14.3953125,5.27114161 14.49375,5.31342484 C14.6484375,5.37450061 14.7714844,5.47081241 14.8628906,5.60236022 C14.9542969,5.73390804 15,5.87955027 15,6.0392869 L15,15.1231335 C15,15.2828701 14.9542969,15.4285123 14.8628906,15.5600602 C14.7714844,15.691608 14.6484375,15.7879198 14.49375,15.8489955 C14.4046875,15.8865806 14.3015625,15.9053732 14.184375,15.9053732 C13.959375,15.9053732 13.7648438,15.830203 13.6007813,15.6798626 L10.5,12.6918479 L7.39921875,15.6798626 C7.23046875,15.8349011 7.0359375,15.9124204 6.815625,15.9124204 C6.7078125,15.9124204 6.6046875,15.8912788 6.50625,15.8489955 C6.3515625,15.7879198 6.22851562,15.691608 6.13710937,15.5600602 C6.04570313,15.4285123 6,15.2828701 6,15.1231335 L6,6.0392869 C6,5.87955027 6.04570313,5.73390804 6.13710937,5.60236022 C6.22851562,5.47081241 6.3515625,5.37450061 6.50625,5.31342484 C6.6046875,5.27114161 6.7078125,5.25 6.815625,5.25 L14.184375,5.25 Z" id="Shape" fill="#00C1B0" fill-rule="nonzero"></path>
                        <circle id="Oval" stroke="#00C1B0" cx="10.5" cy="10.5" r="10.5"></circle>
                    </g>
                </g>
            </g>
        </g>
    </g>
</svg>