<?xml version="1.0" encoding="UTF-8"?>
<svg width="13px" height="20px" viewBox="0 0 13 20" version="1.1" xmlns="http://www.w3.org/2000/svg" xmlns:xlink="http://www.w3.org/1999/xlink">
    <!-- Generator: Sketch 43.2 (39069) - http://www.bohemiancoding.com/sketch -->
    <title>Shape</title>
    <desc>Created with Sketch.</desc>
    <defs></defs>
    <g id="Page-1" stroke="none" stroke-width="1" fill="none" fill-rule="evenodd">
        <g id="Desktop-HD" fill-rule="nonzero" fill="#FFFFFF">
            <g id="chevron-left">
                <path d="M12.617866,3.41191067 L6.02977667,10 L12.617866,16.5880893 C12.7750207,16.745244 12.853598,16.9313482 12.853598,17.146402 C12.853598,17.3614557 12.7750207,17.54756 12.617866,17.7047146 L10.5583127,19.764268 C10.401158,19.9214227 10.2150538,20 10,20 C9.78494624,20 9.59884202,19.9214227 9.44168734,19.764268 L0.23573201,10.5583127 C0.0785773366,10.401158 0,10.2150538 0,10 C0,9.78494624 0.0785773366,9.59884202 0.23573201,9.44168734 L9.44168734,0.23573201 C9.59884202,0.0785773366 9.78494624,0 10,0 C10.2150538,0 10.401158,0.0785773366 10.5583127,0.23573201 L12.617866,2.29528536 C12.7750207,2.45244003 12.853598,2.63854425 12.853598,2.85359801 C12.853598,3.06865178 12.7750207,3.254756 12.617866,3.41191067 Z" id="Shape"></path>
            </g>
        </g>
    </g>
</svg>