<?xml version="1.0" encoding="UTF-8"?>
<svg width="17px" height="13px" viewBox="0 0 17 13" version="1.1" xmlns="http://www.w3.org/2000/svg" xmlns:xlink="http://www.w3.org/1999/xlink">
    <!-- Generator: Sketch 43.2 (39069) - http://www.bohemiancoding.com/sketch -->
    <title>envelope</title>
    <desc>Created with Sketch.</desc>
    <defs></defs>
    <g id="Page-1" stroke="none" stroke-width="1" fill="none" fill-rule="evenodd">
        <g id="Desktop" transform="translate(-994.000000, -305.000000)" fill-rule="nonzero" fill="#AAAAAA">
            <g id="widget-init" transform="translate(939.000000, 91.000000)">
                <g id="add-recommendation" transform="translate(0.000000, 8.000000)">
                    <g id="share" transform="translate(45.000000, 195.000000)">
                        <g id="Group-7">
                            <g id="envelope" transform="translate(10.000000, 11.000000)">
                                <path d="M16.5454545,4.19176136 L16.5454545,11.5227273 C16.5454545,11.9289773 16.4008049,12.2767519 16.1115057,12.5660511 C15.8222064,12.8553504 15.4744318,13 15.0681818,13 L1.47727273,13 C1.07102273,13 0.723248106,12.8553504 0.433948864,12.5660511 C0.144649621,12.2767519 0,11.9289773 0,11.5227273 L0,4.19176136 C0.270833333,4.49337121 0.581676136,4.76112689 0.932528409,4.99502841 C3.16074811,6.50923295 4.69034091,7.57102273 5.52130682,8.18039773 C5.87215909,8.43892045 6.15684186,8.64050663 6.37535511,8.78515625 C6.59386837,8.92980587 6.88470644,9.07753314 7.24786932,9.22833807 C7.6110322,9.37914299 7.94957386,9.45454545 8.26349432,9.45454545 L8.28196023,9.45454545 C8.59588068,9.45454545 8.93442235,9.37914299 9.29758523,9.22833807 C9.66074811,9.07753314 9.95158617,8.92980587 10.1700994,8.78515625 C10.3886127,8.64050663 10.6732955,8.43892045 11.0241477,8.18039773 C12.0705492,7.42329545 13.6032197,6.36150568 15.6221591,4.99502841 C15.9730114,4.75497159 16.2807765,4.48721591 16.5454545,4.19176136 Z M16.5454545,1.47727273 C16.5454545,1.96354167 16.3946496,2.42826705 16.0930398,2.87144886 C15.7914299,3.31463068 15.4159564,3.69318182 14.9666193,4.00710227 C12.6522254,5.61363636 11.2118845,6.61387311 10.6455966,7.0078125 C10.5840436,7.05089962 10.4532434,7.14476799 10.253196,7.28941761 C10.0531487,7.43406723 9.88695549,7.55101799 9.75461648,7.64026989 C9.62227746,7.72952178 9.46223958,7.82954545 9.27450284,7.94034091 C9.0867661,8.05113636 8.90980114,8.13423295 8.74360795,8.18963068 C8.57741477,8.24502841 8.4235322,8.27272727 8.28196023,8.27272727 L8.26349432,8.27272727 C8.12192235,8.27272727 7.96803977,8.24502841 7.80184659,8.18963068 C7.63565341,8.13423295 7.45868845,8.05113636 7.2709517,7.94034091 C7.08321496,7.82954545 6.92317708,7.72952178 6.79083807,7.64026989 C6.65849905,7.55101799 6.49230587,7.43406723 6.29225852,7.28941761 C6.09221117,7.14476799 5.96141098,7.05089962 5.89985795,7.0078125 C5.33972538,6.61387311 4.53338068,6.0522017 3.48082386,5.3227983 C2.42826705,4.59339489 1.79734848,4.15482955 1.58806818,4.00710227 C1.20643939,3.74857955 0.846354167,3.3931108 0.5078125,2.94069602 C0.169270833,2.48828125 0,2.06818182 0,1.68039773 C0,1.20028409 0.127722538,0.800189394 0.383167614,0.480113636 C0.638612689,0.160037879 1.00331439,0 1.47727273,0 L15.0681818,0 C15.4682765,0 15.8145123,0.144649621 16.1068892,0.433948864 C16.3992661,0.723248106 16.5454545,1.07102273 16.5454545,1.47727273 Z" id="Shape"></path>
                            </g>
                        </g>
                    </g>
                </g>
            </g>
        </g>
    </g>
</svg>