<?xml version="1.0" encoding="UTF-8"?>
<svg width="61px" height="34px" viewBox="0 0 61 34" version="1.1" xmlns="http://www.w3.org/2000/svg" xmlns:xlink="http://www.w3.org/1999/xlink">
    <!-- Generator: Sketch 43.2 (39069) - http://www.bohemiancoding.com/sketch -->
    <title>Page 1</title>
    <desc>Created with Sketch.</desc>
    <defs>
        <polygon id="path-1" points="0 33.9766874 60.1300694 33.9766874 60.1300694 6.05520926e-05 0 6.05520926e-05"></polygon>
    </defs>
    <g id="Symbols" stroke="none" stroke-width="1" fill="none" fill-rule="evenodd">
        <g id="NAVBAR" transform="translate(-41.000000, -24.000000)">
            <g id="Navbar">
                <g id="Page-1" transform="translate(41.000000, 24.000000)">
                    <path d="M20.3944139,33.6982023 L16.3240449,33.6982023 L16.3240449,19.446359 C16.3240449,19.1678497 16.2693399,18.9084142 16.1603633,18.6668417 C16.05117,18.4257535 15.9042063,18.2145781 15.7191938,18.0335879 C15.5341812,17.8528096 15.3182404,17.7113902 15.0716499,17.6090572 C14.8248117,17.5072388 14.5592431,17.4560723 14.2746656,17.4560723 C13.9899952,17.4560723 13.7242718,17.5072388 13.4776813,17.6090572 C13.2308431,17.7113902 13.0151499,17.8528096 12.8301064,18.0335879 C12.6450939,18.2145781 12.5002974,18.4257535 12.3960266,18.6668417 C12.2915081,18.9084142 12.2394966,19.1678497 12.2394966,19.446359 L12.2394966,33.6982023 L8.1549173,33.6982023 L8.1549173,19.446359 C8.1549173,19.1678497 8.10265806,18.9084142 7.99838727,18.6668417 C7.89380688,18.4257535 7.74932,18.2145781 7.56430745,18.0335879 C7.37926395,17.8528096 7.16332309,17.7113902 6.91673257,17.6090572 C6.66989437,17.5072388 6.40435678,17.4560723 6.11974829,17.4560723 C5.83510883,17.4560723 5.56938549,17.5072388 5.32270209,17.6090572 C5.07592581,17.7113902 4.86017071,17.8528096 4.67522008,18.0335879 C4.49020753,18.2145781 4.3453801,18.4257535 4.24114027,18.6668417 C4.1366218,18.9084142 4.08454832,19.1678497 4.08454832,19.446359 L4.08454832,33.6982023 L0,33.6982023 L0,19.446359 C0,18.6205193 0.158728137,17.843636 0.476772635,17.1150732 C0.794507542,16.3866921 1.2310641,15.7510162 1.78607079,15.2082878 C2.34117036,14.6654988 2.99094335,14.2388185 3.73591607,13.9279744 C4.48064112,13.6171302 5.27514866,13.4617232 6.11974829,13.4617232 C6.87868364,13.4617232 7.60919838,13.593969 8.31147828,13.8582486 C9.01351051,14.1227402 9.64436739,14.5054899 10.2042966,15.0065282 C10.7640091,14.5054899 11.3926679,14.1227402 12.0900253,13.8582486 C12.7874446,13.593969 13.5155135,13.4617232 14.2746656,13.4617232 C15.1190175,13.4617232 15.9135251,13.6171302 16.6584978,13.9279744 C17.4032229,14.2388185 18.0532435,14.6654988 18.6082812,15.2082878 C19.1633498,15.7510162 19.5996587,16.3866921 19.9176412,17.1150732 C20.2354071,17.843636 20.3944139,18.6205193 20.3944139,19.446359 L20.3944139,33.6982023 Z" id="Fill-1" fill="#FFFFFF"></path>
                    <path d="M34.6547051,31.9583923 C34.3417998,32.2369017 34.0071302,32.4992134 33.6515321,32.7449337 C33.2956863,32.9908661 32.9232774,33.2041608 32.5343671,33.385151 C32.1451473,33.5659596 31.7444106,33.7098011 31.3315379,33.8164333 C30.9189438,33.9231564 30.4991052,33.9766844 30.0721151,33.9766844 C29.1328421,33.9766844 28.2504102,33.8142837 27.4250053,33.4894217 C26.5995076,33.1648625 25.8759277,32.7031831 25.2546063,32.1046559 C24.6330681,31.5061288 24.144531,30.7778082 23.7887162,29.9196034 C23.4329323,29.0613986 23.2550094,28.0987414 23.2550094,27.0315713 L23.2550094,18.7920967 L27.1261246,18.7920967 L27.1261246,27.0315713 C27.1261246,27.5325188 27.2043587,27.9804529 27.3609506,28.3745865 C27.5174806,28.7691439 27.7285299,29.1007272 27.9942533,29.3698509 C28.2597909,29.6389444 28.5706528,29.8431261 28.9264676,29.9821234 C29.2822515,30.1213327 29.6640411,30.1908465 30.0721151,30.1908465 C30.4705298,30.1908465 30.8478613,30.1003817 31.2034285,29.9196034 C31.5593361,29.7386132 31.8700123,29.4999471 32.1357976,29.202818 C32.4013352,28.9060219 32.6101244,28.5695642 32.7618558,28.1938082 C32.9136491,27.8180522 32.989654,27.4307004 32.989654,27.0315713 L32.989654,18.7920967 L36.8750105,18.7920967 L36.8750105,33.6982053 L35.9357374,33.6982053 L34.6547051,31.9583923 Z" id="Fill-3" fill="#FFFFFF"></path>
                    <mask id="mask-2" fill="white">
                        <use xlink:href="#path-1"></use>
                    </mask>
                    <g id="Clip-6"></g>
                    <polygon id="Fill-5" fill="#FFFFFF" mask="url(#mask-2)" points="39.8352515 33.6982084 43.7490905 33.6982084 43.7490905 12.8632324 39.8352515 12.8632324"></polygon>
                    <path d="M57.9097981,31.9583923 C57.596738,32.2369017 57.2622232,32.4992134 56.9065013,32.7449337 C56.5506865,32.9908661 56.1782466,33.2041608 55.7893054,33.385151 C55.4001474,33.5659596 54.9993798,33.7098011 54.5866309,33.8164333 C54.1740059,33.9231564 53.7541364,33.9766844 53.3271772,33.9766844 C52.3878422,33.9766844 51.5054413,33.8142837 50.6799436,33.4894217 C49.8546006,33.1648625 49.1309278,32.7031831 48.5096374,32.1046559 C47.8880992,31.5061288 47.3994692,30.7778082 47.0437473,29.9196034 C46.6878705,29.0613986 46.5100715,28.0987414 46.5100715,27.0315713 L46.5100715,18.7920967 L50.3810938,18.7920967 L50.3810938,27.0315713 C50.3810938,27.5325188 50.4594826,27.9804529 50.6159198,28.3745865 C50.7724808,28.7691439 50.9834991,29.1007272 51.2492844,29.3698509 C51.514822,29.6389444 51.825653,29.8431261 52.1815297,29.9821234 C52.5372206,30.1213327 52.9191341,30.1908465 53.3271772,30.1908465 C53.7256538,30.1908465 54.1027996,30.1003817 54.4585524,29.9196034 C54.8144292,29.7386132 55.1251363,29.4999471 55.3907668,29.202818 C55.6563044,28.9060219 55.8650936,28.5695642 56.0169798,28.1938082 C56.1686182,27.8180522 56.2447471,27.4307004 56.2447471,27.0315713 L56.2447471,18.7920967 L60.1300725,18.7920967 L60.1300725,33.6982053 L59.1907066,33.6982053 L57.9097981,31.9583923 Z" id="Fill-7" fill="#FFFFFF" mask="url(#mask-2)"></path>
                    <path d="M40.9710911,4.89480107 C38.161569,4.89480107 34.6190864,1.13490971 34.6190864,1.13490971 C30.8940061,1.52310917 29.9164984,5.49378237 29.9161888,5.49508424 C29.9158482,5.49378237 28.9383405,1.52310917 25.2132911,1.13490971 C25.2132911,1.13490971 21.6708395,4.89480107 18.8613174,4.89480107 C18.8613174,4.89480107 12.6925606,2.21004239 9.51660471,7.26625111e-05 C9.51660471,7.26625111e-05 14.6470188,8.54127836 19.7163813,7.46617596 C19.7163813,7.46617596 27.717431,3.52408335 28.5724949,6.98832912 C28.5724949,6.98832912 29.0611249,8.66074764 27.4120489,8.54127836 C27.4120489,8.54127836 28.877877,10.0942276 29.9161888,9.73585004 C30.9545005,10.0942276 32.4203597,8.54127836 32.4203597,8.54127836 C30.7712836,8.66074764 31.2598517,6.98832912 31.2598517,6.98832912 C32.1149465,3.52408335 40.1160273,7.46617596 40.1160273,7.46617596 C45.1853278,8.54127836 50.3158038,7.26625111e-05 50.3158038,7.26625111e-05 C47.139817,2.21004239 40.9710911,4.89480107 40.9710911,4.89480107" id="Fill-8" fill="#FFFFFF" mask="url(#mask-2)"></path>
                </g>
            </g>
        </g>
    </g>
</svg>