<?xml version="1.0" encoding="UTF-8"?>
<svg width="50px" height="50px" viewBox="0 0 50 50" version="1.1" xmlns="http://www.w3.org/2000/svg" xmlns:xlink="http://www.w3.org/1999/xlink">
    <!-- Generator: Sketch 43.2 (39069) - http://www.bohemiancoding.com/sketch -->
    <title>smile-o</title>
    <desc>Created with Sketch.</desc>
    <defs></defs>
    <g id="Page-1" stroke="none" stroke-width="1" fill="none" fill-rule="evenodd">
        <g id="Desktop-Copy-6" transform="translate(-1069.000000, -185.000000)" fill-rule="nonzero" fill="#00C1B0">
            <g id="send-mail-success" transform="translate(939.000000, 91.000000)">
                <g id="smile-o" transform="translate(130.000000, 94.000000)">
                    <path d="M36.9140625,30.8268229 C36.1111111,33.452691 34.6137153,35.5685764 32.421875,37.1744792 C30.2300347,38.7803819 27.7560764,39.5833333 25,39.5833333 C22.2439236,39.5833333 19.7699653,38.7803819 17.578125,37.1744792 C15.3862847,35.5685764 13.8888889,33.452691 13.0859375,30.8268229 C12.9123264,30.2842882 12.9557292,29.7580295 13.2161458,29.2480469 C13.4765625,28.7380642 13.8888889,28.3962674 14.453125,28.2226562 C14.9956597,28.0490451 15.5219184,28.0924479 16.031901,28.3528646 C16.5418837,28.6132812 16.8836806,29.0256076 17.0572917,29.5898437 C17.5998264,31.3259549 18.6035156,32.7311198 20.0683594,33.8053385 C21.5332031,34.8795573 23.1770833,35.4166667 25,35.4166667 C26.8229167,35.4166667 28.4667969,34.8795573 29.9316406,33.8053385 C31.3964844,32.7311198 32.4001736,31.3259549 32.9427083,29.5898437 C33.1163194,29.0256076 33.4635417,28.6132812 33.984375,28.3528646 C34.5052083,28.0924479 35.0368924,28.0490451 35.5794271,28.2226562 C36.1219618,28.3962674 36.5234375,28.7380642 36.7838542,29.2480469 C37.0442708,29.7580295 37.0876736,30.2842882 36.9140625,30.8268229 Z M20.8333333,16.6666667 C20.8333333,17.8168403 20.4264323,18.7988281 19.6126302,19.6126302 C18.7988281,20.4264323 17.8168403,20.8333333 16.6666667,20.8333333 C15.5164931,20.8333333 14.5345052,20.4264323 13.7207031,19.6126302 C12.906901,18.7988281 12.5,17.8168403 12.5,16.6666667 C12.5,15.5164931 12.906901,14.5345052 13.7207031,13.7207031 C14.5345052,12.906901 15.5164931,12.5 16.6666667,12.5 C17.8168403,12.5 18.7988281,12.906901 19.6126302,13.7207031 C20.4264323,14.5345052 20.8333333,15.5164931 20.8333333,16.6666667 Z M37.5,16.6666667 C37.5,17.8168403 37.093099,18.7988281 36.2792969,19.6126302 C35.4654948,20.4264323 34.4835069,20.8333333 33.3333333,20.8333333 C32.1831597,20.8333333 31.2011719,20.4264323 30.3873698,19.6126302 C29.5735677,18.7988281 29.1666667,17.8168403 29.1666667,16.6666667 C29.1666667,15.5164931 29.5735677,14.5345052 30.3873698,13.7207031 C31.2011719,12.906901 32.1831597,12.5 33.3333333,12.5 C34.4835069,12.5 35.4654948,12.906901 36.2792969,13.7207031 C37.093099,14.5345052 37.5,15.5164931 37.5,16.6666667 Z M45.8333333,25 C45.8333333,22.1788194 45.2799479,19.4824219 44.1731771,16.9108073 C43.0664062,14.3391927 41.5852865,12.125651 39.7298177,10.2701823 C37.874349,8.41471354 35.6608073,6.93359375 33.0891927,5.82682292 C30.5175781,4.72005208 27.8211806,4.16666667 25,4.16666667 C22.1788194,4.16666667 19.4824219,4.72005208 16.9108073,5.82682292 C14.3391927,6.93359375 12.125651,8.41471354 10.2701823,10.2701823 C8.41471354,12.125651 6.93359375,14.3391927 5.82682292,16.9108073 C4.72005208,19.4824219 4.16666667,22.1788194 4.16666667,25 C4.16666667,27.8211806 4.72005208,30.5175781 5.82682292,33.0891927 C6.93359375,35.6608073 8.41471354,37.874349 10.2701823,39.7298177 C12.125651,41.5852865 14.3391927,43.0664062 16.9108073,44.1731771 C19.4824219,45.2799479 22.1788194,45.8333333 25,45.8333333 C27.8211806,45.8333333 30.5175781,45.2799479 33.0891927,44.1731771 C35.6608073,43.0664062 37.874349,41.5852865 39.7298177,39.7298177 C41.5852865,37.874349 43.0664062,35.6608073 44.1731771,33.0891927 C45.2799479,30.5175781 45.8333333,27.8211806 45.8333333,25 Z M50,25 C50,29.5355903 48.8823785,33.718533 46.6471354,37.5488281 C44.4118924,41.3791233 41.3791233,44.4118924 37.5488281,46.6471354 C33.718533,48.8823785 29.5355903,50 25,50 C20.4644097,50 16.281467,48.8823785 12.4511719,46.6471354 C8.62087674,44.4118924 5.58810764,41.3791233 3.35286458,37.5488281 C1.11762153,33.718533 0,29.5355903 0,25 C0,20.4644097 1.11762153,16.281467 3.35286458,12.4511719 C5.58810764,8.62087674 8.62087674,5.58810764 12.4511719,3.35286458 C16.281467,1.11762153 20.4644097,0 25,0 C29.5355903,0 33.718533,1.11762153 37.5488281,3.35286458 C41.3791233,5.58810764 44.4118924,8.62087674 46.6471354,12.4511719 C48.8823785,16.281467 50,20.4644097 50,25 Z" id="Shape"></path>
                </g>
            </g>
        </g>
    </g>
</svg>