<?xml version="1.0" encoding="UTF-8"?>
<svg width="21px" height="19px" viewBox="0 0 21 19" version="1.1" xmlns="http://www.w3.org/2000/svg" xmlns:xlink="http://www.w3.org/1999/xlink">
    <!-- Generator: Sketch 43.2 (39069) - http://www.bohemiancoding.com/sketch -->
    <title>comment</title>
    <desc>Created with Sketch.</desc>
    <defs></defs>
    <g id="Page-1" stroke="none" stroke-width="1" fill="none" fill-rule="evenodd">
        <g id="Desktop" transform="translate(-1174.000000, -302.000000)" fill-rule="nonzero" fill="#18AF0C">
            <g id="widget-init" transform="translate(939.000000, 91.000000)">
                <g id="add-recommendation" transform="translate(0.000000, 8.000000)">
                    <g id="share" transform="translate(45.000000, 195.000000)">
                        <g id="comment" transform="translate(190.000000, 8.000000)">
                            <path d="M21,7.6 C21,8.9775 20.53125,10.2501042 19.59375,11.4178125 C18.65625,12.5855208 17.3828125,13.5078125 15.7734375,14.1846875 C14.1640625,14.8615625 12.40625,15.2 10.5,15.2 C9.953125,15.2 9.38671875,15.1683333 8.80078125,15.105 C7.25390625,16.4904167 5.45703125,17.4483333 3.41015625,17.97875 C3.02734375,18.0895833 2.58203125,18.1766667 2.07421875,18.24 C1.94140625,18.2558333 1.82226562,18.2202083 1.71679687,18.133125 C1.61132812,18.0460417 1.54296875,17.93125 1.51171875,17.78875 L1.51171875,17.776875 C1.48828125,17.7452083 1.48632812,17.6977083 1.50585938,17.634375 C1.52539062,17.5710417 1.53320313,17.5314583 1.52929688,17.515625 C1.52539062,17.4997917 1.54296875,17.4621875 1.58203125,17.4028125 L1.65234375,17.2959375 L1.734375,17.195 L1.828125,17.088125 C1.8828125,17.0247917 2.00390625,16.8882292 2.19140625,16.6784375 C2.37890625,16.4686458 2.51367188,16.3182292 2.59570312,16.2271875 C2.67773438,16.1361458 2.79882812,15.9797917 2.95898438,15.758125 C3.11914062,15.5364583 3.24609375,15.3345833 3.33984375,15.1525 C3.43359375,14.9704167 3.5390625,14.736875 3.65625,14.451875 C3.7734375,14.166875 3.875,13.8660417 3.9609375,13.549375 C2.734375,12.8447917 1.76757812,11.9739583 1.06054688,10.936875 C0.353515625,9.89979167 0,8.7875 0,7.6 C0,6.57083333 0.27734375,5.5871875 0.83203125,4.6490625 C1.38671875,3.7109375 2.1328125,2.90145833 3.0703125,2.220625 C4.0078125,1.53979167 5.125,0.999479167 6.421875,0.5996875 C7.71875,0.199895833 9.078125,0 10.5,0 C12.40625,0 14.1640625,0.3384375 15.7734375,1.0153125 C17.3828125,1.6921875 18.65625,2.61447917 19.59375,3.7821875 C20.53125,4.94989583 21,6.2225 21,7.6 Z" id="Shape"></path>
                        </g>
                    </g>
                </g>
            </g>
        </g>
    </g>
</svg>