<?xml version="1.0" encoding="UTF-8"?>
<svg width="19px" height="15px" viewBox="0 0 19 15" version="1.1" xmlns="http://www.w3.org/2000/svg" xmlns:xlink="http://www.w3.org/1999/xlink">
    <!-- Generator: Sketch 43.2 (39069) - http://www.bohemiancoding.com/sketch -->
    <title>Shape</title>
    <desc>Created with Sketch.</desc>
    <defs></defs>
    <g id="Page-1" stroke="none" stroke-width="1" fill="none" fill-rule="evenodd">
        <g id="Desktop" transform="translate(-1130.000000, -304.000000)" fill-rule="nonzero" fill="#25AAF4">
            <g id="widget-init" transform="translate(939.000000, 91.000000)">
                <g id="add-recommendation" transform="translate(0.000000, 8.000000)">
                    <g id="share" transform="translate(45.000000, 195.000000)">
                        <g id="Group-4" transform="translate(138.000000, 0.000000)">
                            <path d="M26.8020833,11.78125 C26.2786458,12.546875 25.6458333,13.1992188 24.9036458,13.7382812 C24.9114583,13.8476562 24.9153646,14.0117188 24.9153646,14.2304688 C24.9153646,15.2460938 24.7669271,16.2597656 24.4700521,17.2714844 C24.1731771,18.2832031 23.7220052,19.2539062 23.1165365,20.1835938 C22.5110677,21.1132812 21.7903646,21.9355469 20.9544271,22.6503906 C20.1184896,23.3652344 19.1106771,23.9355469 17.9309896,24.3613281 C16.7513021,24.7871094 15.4895833,25 14.1458333,25 C12.0286458,25 10.0911458,24.4335938 8.33333333,23.3007812 C8.60677083,23.3320312 8.91145833,23.3476562 9.24739583,23.3476562 C11.0052083,23.3476562 12.5716146,22.8085938 13.9466146,21.7304688 C13.1263021,21.7148438 12.3919271,21.4628906 11.7434896,20.9746094 C11.0950521,20.4863281 10.6497396,19.8632812 10.4075521,19.1054688 C10.6653646,19.1445312 10.9036458,19.1640625 11.1223958,19.1640625 C11.4583333,19.1640625 11.7903646,19.1210938 12.1184896,19.0351562 C11.2434896,18.8554688 10.5188802,18.4199219 9.94466146,17.7285156 C9.37044271,17.0371094 9.08333333,16.234375 9.08333333,15.3203125 L9.08333333,15.2734375 C9.61458333,15.5703125 10.1848958,15.7304688 10.7942708,15.7539062 C10.2786458,15.4101562 9.86848958,14.9609375 9.56380208,14.40625 C9.25911458,13.8515625 9.10677083,13.25 9.10677083,12.6015625 C9.10677083,11.9140625 9.27864583,11.2773438 9.62239583,10.6914062 C10.5677083,11.8554688 11.718099,12.7871094 13.0735677,13.4863281 C14.4290365,14.1855469 15.8802083,14.5742188 17.4270833,14.6523438 C17.3645833,14.3554688 17.3333333,14.0664062 17.3333333,13.7851562 C17.3333333,12.7382812 17.702474,11.8457031 18.4407552,11.1074219 C19.1790365,10.3691406 20.0716146,10 21.1184896,10 C22.2122396,10 23.1341146,10.3984375 23.8841146,11.1953125 C24.7356771,11.03125 25.5364583,10.7265625 26.2864583,10.28125 C25.9973958,11.1796875 25.4427083,11.875 24.6223958,12.3671875 C25.3489583,12.2890625 26.0755208,12.09375 26.8020833,11.78125 Z" id="Shape"></path>
                        </g>
                    </g>
                </g>
            </g>
        </g>
    </g>
</svg>