<?xml version="1.0" encoding="UTF-8"?>
<svg width="17px" height="17px" viewBox="0 0 17 17" version="1.1" xmlns="http://www.w3.org/2000/svg" xmlns:xlink="http://www.w3.org/1999/xlink">
    <!-- Generator: Sketch 43.2 (39069) - http://www.bohemiancoding.com/sketch -->
    <title>whatsapp</title>
    <desc>Created with Sketch.</desc>
    <defs></defs>
    <g id="Page-1" stroke="none" stroke-width="1" fill="none" fill-rule="evenodd">
        <g id="Desktop" transform="translate(-1042.000000, -303.000000)" fill-rule="nonzero" fill="#28C131">
            <g id="widget-init" transform="translate(939.000000, 91.000000)">
                <g id="add-recommendation" transform="translate(0.000000, 8.000000)">
                    <g id="share" transform="translate(45.000000, 195.000000)">
                        <g id="Group" transform="translate(48.000000, 0.000000)">
                            <g id="whatsapp" transform="translate(10.000000, 9.166667)">
                                <path d="M10.6050818,9.17312661 C10.6983922,9.17312661 11.0483061,9.33103646 11.6548234,9.64685616 C12.2613408,9.96267585 12.5825438,10.1528854 12.6184324,10.2174849 C12.6327878,10.2533735 12.6399655,10.3072064 12.6399655,10.3789836 C12.6399655,10.6158484 12.5789549,10.8886018 12.4569337,11.1972438 C12.3420902,11.4771748 12.0872811,11.7122452 11.6925065,11.9024548 C11.2977318,12.0926644 10.9316681,12.1877692 10.5943152,12.1877692 C10.1851852,12.1877692 9.50330175,11.9652598 8.54866494,11.5202412 C7.84524835,11.1972438 7.23514212,10.7737583 6.71834625,10.2497847 C6.20155039,9.72581108 5.67039908,9.06187195 5.12489233,8.25796727 C4.60809647,7.48995119 4.3532874,6.79371232 4.36046512,6.16925065 L4.36046512,6.083118 C4.38199828,5.42994545 4.64757393,4.86290554 5.15719208,4.38199828 C5.32945736,4.22408843 5.51607809,4.14513351 5.71705426,4.14513351 C5.76012059,4.14513351 5.82472007,4.1505168 5.91085271,4.16128338 C5.99698536,4.17204996 6.0651737,4.17743325 6.11541774,4.17743325 C6.25179443,4.17743325 6.34689922,4.20076084 6.40073213,4.24741602 C6.45456503,4.2940712 6.51019236,4.39276486 6.56761413,4.54349699 C6.62503589,4.68705139 6.74346827,5.00287109 6.92291128,5.49095607 C7.10235429,5.97904106 7.1920758,6.24820557 7.1920758,6.29844961 C7.1920758,6.44918174 7.06826012,6.6555412 6.82062877,6.91752799 C6.57299742,7.17951479 6.44918174,7.34639678 6.44918174,7.41817399 C6.44918174,7.46841803 6.46712604,7.52225093 6.50301464,7.5796727 C6.74705713,8.10364628 7.11312087,8.59532013 7.60120586,9.05469423 C8.0031582,9.43511341 8.54507608,9.79758829 9.22695952,10.1421189 C9.31309216,10.1923629 9.39204709,10.2174849 9.46382429,10.2174849 C9.57149009,10.2174849 9.76528854,10.0434252 10.0452196,9.69530577 C10.3251507,9.34718633 10.5117715,9.17312661 10.6050818,9.17312661 Z M8.41946598,14.8794143 C9.33103646,14.8794143 10.2049239,14.6999713 11.0411283,14.3410853 C11.8773328,13.9821993 12.5968992,13.501292 13.1998277,12.8983635 C13.8027562,12.295435 14.2836635,11.5758685 14.6425495,10.7396641 C15.0014355,9.90345966 15.1808786,9.02957221 15.1808786,8.11800172 C15.1808786,7.20643124 15.0014355,6.33254378 14.6425495,5.49633936 C14.2836635,4.66013494 13.8027562,3.94056848 13.1998277,3.33763997 C12.5968992,2.73471146 11.8773328,2.25380419 11.0411283,1.89491817 C10.2049239,1.53603216 9.33103646,1.35658915 8.41946598,1.35658915 C7.50789549,1.35658915 6.63400804,1.53603216 5.79780362,1.89491817 C4.9615992,2.25380419 4.24203273,2.73471146 3.63910422,3.33763997 C3.03617571,3.94056848 2.55526845,4.66013494 2.19638243,5.49633936 C1.83749641,6.33254378 1.6580534,7.20643124 1.6580534,8.11800172 C1.6580534,9.57507895 2.08871662,10.8957795 2.95004307,12.0801034 L2.0994832,14.5887166 L4.70499569,13.7596899 C5.83907551,14.5061728 7.07723227,14.8794143 8.41946598,14.8794143 Z M8.41946598,0 C9.51765719,0 10.5673988,0.215331611 11.5686908,0.645994832 C12.5699828,1.07665805 13.4331036,1.65446454 14.1580534,2.3794143 C14.8830032,3.10436405 15.4608096,3.96748493 15.8914729,4.96877692 C16.3221361,5.97006891 16.5374677,7.01981051 16.5374677,8.11800172 C16.5374677,9.21619294 16.3221361,10.2659345 15.8914729,11.2672265 C15.4608096,12.2685185 14.8830032,13.1316394 14.1580534,13.8565891 C13.4331036,14.5815389 12.5699828,15.1593454 11.5686908,15.5900086 C10.5673988,16.0206718 9.51765719,16.2360034 8.41946598,16.2360034 C7.01981051,16.2360034 5.70987654,15.8986506 4.48966408,15.2239449 L0,16.6666667 L1.46425495,12.3062016 C0.689061154,11.0285673 0.301464255,9.63250072 0.301464255,8.11800172 C0.301464255,7.01981051 0.516795866,5.97006891 0.947459087,4.96877692 C1.37812231,3.96748493 1.9559288,3.10436405 2.68087855,2.3794143 C3.40582831,1.65446454 4.26894918,1.07665805 5.27024117,0.645994832 C6.27153316,0.215331611 7.32127476,0 8.41946598,0 Z" id="Shape"></path>
                            </g>
                        </g>
                    </g>
                </g>
            </g>
        </g>
    </g>
</svg>